<mxfile host="app.diagrams.net" modified="2022-06-29T05:56:22.520Z" agent="5.0 (Macintosh; Intel Mac OS X 10_15_7) AppleWebKit/537.36 (KHTML, like Gecko) Chrome/103.0.0.0 Safari/537.36" etag="uzDXYg0o0UwcpflA23mf" version="20.0.1" type="github">
  <diagram id="C_hxBbpLIfvS-t4lmPHE" name="Page-1">
    <mxGraphModel dx="1426" dy="794" grid="1" gridSize="10" guides="1" tooltips="1" connect="1" arrows="1" fold="1" page="1" pageScale="1" pageWidth="827" pageHeight="1169" math="0" shadow="0">
      <root>
        <mxCell id="0" />
        <mxCell id="1" parent="0" />
        <mxCell id="r7N5dlVoFXFtBDSdZL3y-1" value="客户端" style="shape=umlActor;verticalLabelPosition=bottom;verticalAlign=top;html=1;outlineConnect=0;" vertex="1" parent="1">
          <mxGeometry x="150" y="240" width="30" height="60" as="geometry" />
        </mxCell>
        <mxCell id="r7N5dlVoFXFtBDSdZL3y-2" value="服务端" style="shape=umlActor;verticalLabelPosition=bottom;verticalAlign=top;html=1;outlineConnect=0;" vertex="1" parent="1">
          <mxGeometry x="510" y="240" width="30" height="60" as="geometry" />
        </mxCell>
        <mxCell id="r7N5dlVoFXFtBDSdZL3y-6" value="黑客" style="shape=umlActor;verticalLabelPosition=bottom;verticalAlign=top;html=1;outlineConnect=0;" vertex="1" parent="1">
          <mxGeometry x="330" y="240" width="30" height="60" as="geometry" />
        </mxCell>
        <mxCell id="r7N5dlVoFXFtBDSdZL3y-22" value="" style="html=1;points=[];perimeter=orthogonalPerimeter;" vertex="1" parent="1">
          <mxGeometry x="160" y="350" width="10" height="330" as="geometry" />
        </mxCell>
        <mxCell id="r7N5dlVoFXFtBDSdZL3y-23" value="" style="html=1;points=[];perimeter=orthogonalPerimeter;" vertex="1" parent="1">
          <mxGeometry x="340" y="350" width="10" height="330" as="geometry" />
        </mxCell>
        <mxCell id="r7N5dlVoFXFtBDSdZL3y-25" value="" style="html=1;points=[];perimeter=orthogonalPerimeter;" vertex="1" parent="1">
          <mxGeometry x="520" y="360" width="10" height="320" as="geometry" />
        </mxCell>
        <mxCell id="r7N5dlVoFXFtBDSdZL3y-26" value="" style="html=1;points=[];perimeter=orthogonalPerimeter;" vertex="1" parent="1">
          <mxGeometry x="330" y="370" width="10" height="120" as="geometry" />
        </mxCell>
        <mxCell id="r7N5dlVoFXFtBDSdZL3y-27" value="请求" style="html=1;verticalAlign=bottom;endArrow=block;entryX=0;entryY=0;rounded=0;exitX=0.9;exitY=0.064;exitDx=0;exitDy=0;exitPerimeter=0;" edge="1" target="r7N5dlVoFXFtBDSdZL3y-26" parent="1" source="r7N5dlVoFXFtBDSdZL3y-22">
          <mxGeometry relative="1" as="geometry">
            <mxPoint x="270" y="370" as="sourcePoint" />
          </mxGeometry>
        </mxCell>
        <mxCell id="r7N5dlVoFXFtBDSdZL3y-28" value="返回 箱子 HG" style="html=1;verticalAlign=bottom;endArrow=open;dashed=1;endSize=8;exitX=0;exitY=0.95;rounded=0;" edge="1" source="r7N5dlVoFXFtBDSdZL3y-26" parent="1" target="r7N5dlVoFXFtBDSdZL3y-22">
          <mxGeometry relative="1" as="geometry">
            <mxPoint x="180" y="440" as="targetPoint" />
          </mxGeometry>
        </mxCell>
        <mxCell id="r7N5dlVoFXFtBDSdZL3y-29" value="" style="html=1;points=[];perimeter=orthogonalPerimeter;" vertex="1" parent="1">
          <mxGeometry x="510" y="400" width="10" height="50" as="geometry" />
        </mxCell>
        <mxCell id="r7N5dlVoFXFtBDSdZL3y-30" value="请求" style="html=1;verticalAlign=bottom;endArrow=block;entryX=0;entryY=0;rounded=0;exitX=1.1;exitY=0.155;exitDx=0;exitDy=0;exitPerimeter=0;" edge="1" target="r7N5dlVoFXFtBDSdZL3y-29" parent="1" source="r7N5dlVoFXFtBDSdZL3y-23">
          <mxGeometry relative="1" as="geometry">
            <mxPoint x="440" y="400" as="sourcePoint" />
          </mxGeometry>
        </mxCell>
        <mxCell id="r7N5dlVoFXFtBDSdZL3y-31" value="返回 箱子 FG" style="html=1;verticalAlign=bottom;endArrow=open;dashed=1;endSize=8;exitX=0;exitY=0.95;rounded=0;" edge="1" source="r7N5dlVoFXFtBDSdZL3y-29" parent="1" target="r7N5dlVoFXFtBDSdZL3y-23">
          <mxGeometry relative="1" as="geometry">
            <mxPoint x="440" y="476" as="targetPoint" />
          </mxGeometry>
        </mxCell>
        <mxCell id="r7N5dlVoFXFtBDSdZL3y-32" value="数据在箱子 HG里面" style="html=1;verticalAlign=bottom;endArrow=block;entryX=0.1;entryY=0.555;rounded=0;exitX=0.9;exitY=0.064;exitDx=0;exitDy=0;exitPerimeter=0;entryDx=0;entryDy=0;entryPerimeter=0;" edge="1" parent="1" target="r7N5dlVoFXFtBDSdZL3y-23">
          <mxGeometry relative="1" as="geometry">
            <mxPoint x="169" y="531.1199999999999" as="sourcePoint" />
            <mxPoint x="330" y="530.0000000000002" as="targetPoint" />
          </mxGeometry>
        </mxCell>
        <mxCell id="r7N5dlVoFXFtBDSdZL3y-33" value="" style="html=1;points=[];perimeter=orthogonalPerimeter;" vertex="1" parent="1">
          <mxGeometry x="350" y="570" width="10" height="40" as="geometry" />
        </mxCell>
        <mxCell id="r7N5dlVoFXFtBDSdZL3y-34" value="用 HS 钥匙&amp;nbsp;" style="edgeStyle=orthogonalEdgeStyle;html=1;align=left;spacingLeft=2;endArrow=block;rounded=0;entryX=1;entryY=0;exitX=1.2;exitY=0.612;exitDx=0;exitDy=0;exitPerimeter=0;" edge="1" target="r7N5dlVoFXFtBDSdZL3y-33" parent="1" source="r7N5dlVoFXFtBDSdZL3y-23">
          <mxGeometry relative="1" as="geometry">
            <mxPoint x="355" y="550" as="sourcePoint" />
            <Array as="points">
              <mxPoint x="352" y="550" />
              <mxPoint x="385" y="550" />
              <mxPoint x="385" y="570" />
            </Array>
          </mxGeometry>
        </mxCell>
        <mxCell id="r7N5dlVoFXFtBDSdZL3y-36" value="修改数据在箱子 FG里面" style="html=1;verticalAlign=bottom;endArrow=block;entryX=0.1;entryY=0.555;rounded=0;exitX=0.9;exitY=0.064;exitDx=0;exitDy=0;exitPerimeter=0;entryDx=0;entryDy=0;entryPerimeter=0;" edge="1" parent="1">
          <mxGeometry relative="1" as="geometry">
            <mxPoint x="348" y="629.9999999999999" as="sourcePoint" />
            <mxPoint x="520" y="632.0300000000001" as="targetPoint" />
          </mxGeometry>
        </mxCell>
      </root>
    </mxGraphModel>
  </diagram>
</mxfile>
